<svg width="40" height="40" viewBox="0 0 40 40" fill="none" xmlns="http://www.w3.org/2000/svg">
<path d="M32.387 21.6333C32.4537 21.1 32.5037 20.5667 32.5037 20C32.5037 19.4333 32.4537 18.9 32.387 18.3667L35.9037 15.6167C36.2203 15.3667 36.3037 14.9167 36.1037 14.55L32.7703 8.78334C32.6203 8.51668 32.337 8.36668 32.037 8.36668C31.937 8.36668 31.837 8.38334 31.7537 8.41668L27.6037 10.0833C26.737 9.41668 25.8037 8.86668 24.787 8.45001L24.1537 4.03334C24.1037 3.63334 23.7537 3.33334 23.337 3.33334H16.6703C16.2537 3.33334 15.9037 3.63334 15.8537 4.03334L15.2203 8.45001C14.2037 8.86668 13.2703 9.43334 12.4037 10.0833L8.25367 8.41668C8.15367 8.38334 8.05367 8.36668 7.95367 8.36668C7.67034 8.36668 7.387 8.51668 7.237 8.78334L3.90367 14.55C3.687 14.9167 3.787 15.3667 4.10367 15.6167L7.62034 18.3667C7.55367 18.9 7.50367 19.45 7.50367 20C7.50367 20.55 7.55367 21.1 7.62034 21.6333L4.10367 24.3833C3.787 24.6333 3.70367 25.0833 3.90367 25.45L7.237 31.2167C7.387 31.4833 7.67034 31.6333 7.97034 31.6333C8.07034 31.6333 8.17034 31.6167 8.25367 31.5833L12.4037 29.9167C13.2703 30.5833 14.2037 31.1333 15.2203 31.55L15.8537 35.9667C15.9037 36.3667 16.2537 36.6667 16.6703 36.6667H23.337C23.7537 36.6667 24.1037 36.3667 24.1537 35.9667L24.787 31.55C25.8037 31.1333 26.737 30.5667 27.6037 29.9167L31.7537 31.5833C31.8537 31.6167 31.9537 31.6333 32.0537 31.6333C32.337 31.6333 32.6203 31.4833 32.7703 31.2167L36.1037 25.45C36.3037 25.0833 36.2203 24.6333 35.9037 24.3833L32.387 21.6333ZM29.087 18.7833C29.1537 19.3 29.1703 19.65 29.1703 20C29.1703 20.35 29.137 20.7167 29.087 21.2167L28.8537 23.1L30.337 24.2667L32.137 25.6667L30.9703 27.6833L28.8537 26.8333L27.1203 26.1333L25.6203 27.2667C24.9037 27.8 24.2203 28.2 23.537 28.4833L21.7703 29.2L21.5037 31.0833L21.1703 33.3333H18.837L18.2537 29.2L16.487 28.4833C15.7703 28.1833 15.1037 27.8 14.437 27.3L12.9203 26.1333L11.1537 26.85L9.037 27.7L7.87034 25.6833L9.67034 24.2833L11.1537 23.1167L10.9203 21.2333C10.8703 20.7167 10.837 20.3333 10.837 20C10.837 19.6667 10.8703 19.2833 10.9203 18.7833L11.1537 16.9L9.67034 15.7333L7.87034 14.3333L9.037 12.3167L11.1537 13.1667L12.887 13.8667L14.387 12.7333C15.1037 12.2 15.787 11.8 16.4703 11.5167L18.237 10.8L18.5037 8.91668L18.837 6.66668H21.1537L21.737 10.8L23.5037 11.5167C24.2203 11.8167 24.887 12.2 25.5537 12.7L27.0703 13.8667L28.837 13.15L30.9537 12.3L32.1203 14.3167L30.337 15.7333L28.8537 16.9L29.087 18.7833ZM20.0037 13.3333C16.3203 13.3333 13.337 16.3167 13.337 20C13.337 23.6833 16.3203 26.6667 20.0037 26.6667C23.687 26.6667 26.6703 23.6833 26.6703 20C26.6703 16.3167 23.687 13.3333 20.0037 13.3333ZM20.0037 23.3333C18.1703 23.3333 16.6703 21.8333 16.6703 20C16.6703 18.1667 18.1703 16.6667 20.0037 16.6667C21.837 16.6667 23.337 18.1667 23.337 20C23.337 21.8333 21.837 23.3333 20.0037 23.3333Z" fill="black"/>
</svg>
